<?xml version="1.0" encoding="utf-8"?>
<svg width="16px" height="16px" viewBox="0 0 24 24" fill="none" xmlns="http://www.w3.org/2000/svg">
<path d="M20.69 11.71C20.6521 11.6207 20.5978 11.5393 20.53 11.47L16.53 7.46997C16.4613 7.39628 16.3785 7.33718 16.2865 7.29619C16.1945 7.2552 16.0952 7.23316 15.9945 7.23138C15.8938 7.2296 15.7938 7.24813 15.7004 7.28585C15.607 7.32357 15.5222 7.37971 15.451 7.45093C15.3797 7.52215 15.3236 7.60698 15.2859 7.70037C15.2482 7.79376 15.2296 7.89379 15.2314 7.99449C15.2332 8.0952 15.2552 8.19451 15.2962 8.28651C15.3372 8.37851 15.3963 8.46131 15.47 8.52997L18.19 11.25H5.81L8.53 8.52997C8.66248 8.3878 8.7346 8.19975 8.73117 8.00545C8.72775 7.81115 8.64903 7.62576 8.51162 7.48835C8.37421 7.35094 8.18882 7.27222 7.99452 7.2688C7.80022 7.26537 7.61217 7.33749 7.47 7.46997L3.47 11.47C3.40221 11.5393 3.34795 11.6207 3.31 11.71C3.27037 11.8015 3.24992 11.9002 3.24992 12C3.24992 12.0997 3.27037 12.1984 3.31 12.29C3.34795 12.3792 3.40221 12.4606 3.47 12.53L7.47 16.53C7.61062 16.6704 7.80125 16.7493 8 16.7493C8.19875 16.7493 8.38937 16.6704 8.53 16.53C8.67045 16.3893 8.74934 16.1987 8.74934 16C8.74934 15.8012 8.67045 15.6106 8.53 15.47L5.81 12.75H18.19L15.47 15.47C15.3295 15.6106 15.2507 15.8012 15.2507 16C15.2507 16.1987 15.3295 16.3893 15.47 16.53C15.6106 16.6704 15.8012 16.7493 16 16.7493C16.1987 16.7493 16.3894 16.6704 16.53 16.53L20.53 12.53C20.5978 12.4606 20.6521 12.3792 20.69 12.29C20.7296 12.1984 20.7501 12.0997 20.7501 12C20.7501 11.9002 20.7296 11.8015 20.69 11.71Z" fill="currentColor"/>
</svg>