<?xml version="1.0" encoding="utf-8"?>
<svg width="16px" height="16px" viewBox="0 0 24 24" fill="none" xmlns="http://www.w3.org/2000/svg">
<path d="M12.29 20.69C12.3792 20.6521 12.4606 20.5978 12.53 20.53L16.53 16.53C16.6625 16.3878 16.7346 16.1998 16.7312 16.0055C16.7277 15.8112 16.649 15.6258 16.5116 15.4884C16.3742 15.351 16.1888 15.2723 15.9945 15.2688C15.8002 15.2654 15.6122 15.3375 15.47 15.47L12.75 18.19V5.81001L15.47 8.53001C15.6122 8.66249 15.8002 8.73462 15.9945 8.73119C16.1888 8.72776 16.3742 8.64905 16.5116 8.51163C16.649 8.37422 16.7277 8.18884 16.7312 7.99454C16.7346 7.80024 16.6625 7.61219 16.53 7.47001L12.53 3.47001C12.4606 3.40222 12.3792 3.34796 12.29 3.31001C12.1984 3.27038 12.0998 3.24994 12 3.24994C11.9002 3.24994 11.8015 3.27038 11.71 3.31001C11.6207 3.34796 11.5394 3.40222 11.47 3.47001L7.47 7.47001C7.32955 7.61064 7.25066 7.80126 7.25066 8.00001C7.25066 8.19876 7.32955 8.38939 7.47 8.53001C7.61062 8.67046 7.80125 8.74935 8 8.74935C8.19875 8.74935 8.38937 8.67046 8.53 8.53001L11.25 5.81001V18.19L8.53 15.47C8.38937 15.3296 8.19875 15.2507 8 15.2507C7.80125 15.2507 7.61062 15.3296 7.47 15.47C7.32955 15.6106 7.25066 15.8013 7.25066 16C7.25066 16.1988 7.32955 16.3894 7.47 16.53L11.47 20.53C11.5394 20.5978 11.6207 20.6521 11.71 20.69C11.8015 20.7296 11.9002 20.7501 12 20.7501C12.0998 20.7501 12.1984 20.7296 12.29 20.69Z" fill="currentColor"/>
</svg>