<svg id="Layer_1" data-name="Layer 1" xmlns="http://www.w3.org/2000/svg" viewBox="0 0 20 20" style="width: 17px;"><path d="M6.35,2.72a4.85,4.85,0,0,1,1.86.16,7.94,7.94,0,0,1,.88.43,3.66,3.66,0,0,0,.85.49c.25,0,.58-.27.81-.39A8.25,8.25,0,0,1,11.7,3a4,4,0,0,1,1.79-.23,3.21,3.21,0,0,0-1.34.09,6.39,6.39,0,0,0-1.47.63c-.45.25-.7.3-.7.86s0,1.18,0,1.78c0,1.3,0,2.61,0,3.92h0v5.63a2.46,2.46,0,0,1,0,.47c-.07.28-.43.42-.7.57a5.29,5.29,0,0,1-2.94.61A9.3,9.3,0,0,0,8,17.15l1.09-.37.89-.52c.06,0,.48.21.56.25.32.14.64.27,1,.38a8.54,8.54,0,0,0,2.12.4" style="fill: none; stroke-linecap: round; stroke-linejoin: round; stroke-width: 1.6px;"></path><path d="M7.57,5.73C6,5.7,4.5,5.65,3,5.77a2.28,2.28,0,0,0-1.76.74A2.3,2.3,0,0,0,.94,7.83l0,3.82A4.73,4.73,0,0,0,1,12.9a1.64,1.64,0,0,0,.68,1,2.44,2.44,0,0,0,1,.27,25,25,0,0,0,4.74.09" style="fill: none; stroke-linecap: round; stroke-linejoin: round; stroke-width: 1.6px;"></path><path d="M12.43,14.32a44.12,44.12,0,0,0,4.6,0,2.24,2.24,0,0,0,1.76-.74,2.29,2.29,0,0,0,.27-1.32l0-3.81A4.81,4.81,0,0,0,19,7.15a1.62,1.62,0,0,0-.68-1,2.31,2.31,0,0,0-1-.28,26.8,26.8,0,0,0-4.74-.09" style="fill: none; stroke-linecap: round; stroke-linejoin: round; stroke-width: 1.6px;"></path></svg>